<svg height="512pt" viewBox="0 -31 512 512" width="512pt" xmlns="http://www.w3.org/2000/svg"><path d="m30 210h151c16.570312 0 30-13.433594 30-30 0-16.570312-13.429688-30-30-30h-181v30c0 16.566406 13.429688 30 30 30zm0 0"/><path d="m90 450c22.152344 0 42.285156-12.140625 52.679688-30h-104.359376c10.394532 17.859375 29.527344 30 51.679688 30zm0 0"/><path d="m473.679688 420h-103.359376c10.394532 17.859375 29.527344 30 51.679688 30s41.285156-12.140625 51.679688-30zm0 0"/><path d="m422 300c-49.707031 0-90 40.292969-90 90h180c0-49.707031-40.292969-90-90-90zm0 0"/><path d="m151 0h-61v30h-30v-30h-60v120h151zm0 0"/><path d="m366.597656 75h-64.597656v30h64.597656c5.226563 8.804688 14.421875 15 25.402344 15h60v-60h-60c-10.984375 0-20.175781 6.195312-25.402344 15zm0 0"/><path d="m422 270c9.914062 0 19.40625 1.554688 28.628906 3.835938 14.96875-41.097657 9.738282-86.894532-13.171875-123.835938h-45.457031c-12.816406 0-24.644531-4.113281-34.402344-10.984375-15.570312 13.753906-25.597656 33.628906-25.597656 55.984375 0 57.890625-48.109375 135-106 135h-15v60h91c0-66.167969 53.832031-120 120-120zm0 0"/><path d="m181 300c0-23.15625-8.988281-44.050781-23.355469-60h-127.644531c-2.101562 0-4.085938-.410156-6.132812-.621094-14.6875 16.015625-23.867188 37.175782-23.867188 60.621094v90h181zm0 0"/></svg>